<?xml version="1.0" encoding="utf-8"?>
<!-- Generator: Adobe Illustrator 16.0.0, SVG Export Plug-In . SVG Version: 6.00 Build 0)  -->
<!DOCTYPE svg PUBLIC "-//W3C//DTD SVG 1.1//EN" "http://www.w3.org/Graphics/SVG/1.1/DTD/svg11.dtd">
<svg version="1.1" id="Layer_1" xmlns="http://www.w3.org/2000/svg" xmlns:xlink="http://www.w3.org/1999/xlink" x="0px" y="0px"
	 width="169.734px" height="194.739px" viewBox="0 0 169.734 194.739" enable-background="new 0 0 169.734 194.739"
	 xml:space="preserve">
<polygon fill="#766BFF" points="84.867,97.37 7.021,142.315 84.867,187.258 "/>
<polygon fill="#00C5ED" points="84.867,98.488 84.867,8.6 7.021,53.543 "/>
<path fill="#120878" d="M96.303,97.37L96.303,97.37c0-4.086-2.181-7.861-5.719-9.904s-7.897-2.043-11.436,0
	s-5.718,5.818-5.718,9.904c0,4.085,2.18,7.861,5.718,9.904s7.897,2.043,11.436,0S96.303,101.456,96.303,97.37"/>
<path fill="#120878" d="M161.683,79.204v4.691c-0.033,0.208-0.057,0.418-0.057,0.632v54.82c0,1.448-0.771,2.786-2.025,3.511
	l-72.708,41.977c-1.254,0.726-2.799,0.726-4.054,0l-72.707-41.977c-1.254-0.725-2.026-2.063-2.026-3.511V55.392
	c0-1.448,0.772-2.786,2.026-3.51L82.84,9.904c1.255-0.724,2.8-0.724,4.054,0l43.996,25.2l4.883,2.984l7.583-5.055l-5.92-3.496
	c-0.092-0.062-0.179-0.128-0.276-0.184l-1.227-0.703l-0.638-0.377l-0.005,0.008L86.893,0.544c-1.254-0.725-2.799-0.725-4.054,0
	L2.026,47.202C0.772,47.926,0,49.264,0,50.712v93.316c0,1.448,0.772,2.786,2.026,3.51l80.813,46.658c1.255,0.725,2.8,0.725,4.054,0
	l80.813-46.658c1.254-0.724,2.027-2.062,2.027-3.51V86.425v-1.898V74.408L161.683,79.204z"/>
<path fill="#120878" d="M166.189,54.884L166.189,54.884c0-4.086-2.181-7.861-5.718-9.904c-3.538-2.043-7.898-2.043-11.437,0
	s-5.718,5.818-5.718,9.904s2.18,7.861,5.718,9.904s7.898,2.043,11.437,0C164.009,62.745,166.189,58.97,166.189,54.884"/>
</svg>
