<?xml version="1.0" encoding="utf-8"?>
<!-- Generator: Adobe Illustrator 16.0.0, SVG Export Plug-In . SVG Version: 6.00 Build 0)  -->
<!DOCTYPE svg PUBLIC "-//W3C//DTD SVG 1.1//EN" "http://www.w3.org/Graphics/SVG/1.1/DTD/svg11.dtd">
<svg version="1.1" id="Layer_1" xmlns="http://www.w3.org/2000/svg" xmlns:xlink="http://www.w3.org/1999/xlink" x="0px" y="0px"
	 width="515.156px" height="194.739px" viewBox="169.734 0 515.156 194.739" enable-background="new 169.734 0 515.156 194.739"
	 xml:space="preserve">
<path fill="#120878" d="M369.228,40.204c4.879,0,8.834-3.955,8.834-8.834s-3.955-8.834-8.834-8.834H335.42V22.46h-17.668v84.339
	c0,4.119,2.096,7.748,5.277,9.882c1.521,1.235,3.434,2.009,5.545,2.009h1.067h5.778h33.809c4.879,0,8.834-3.955,8.834-8.833v-0.001
	c0-4.878-3.955-8.833-8.834-8.833H335.42v-21.99h33.809c4.879,0,8.834-3.955,8.834-8.834c0-4.879-3.955-8.834-8.834-8.834H335.42
	V40.204H369.228z"/>
<path fill="#120878" d="M481.9,107.667l-31.604-85.282h-13.265l-32.565,85.965c-1.764,4.652,0.507,9.826,5.069,11.554
	c4.563,1.729,9.689-0.642,11.452-5.295l22.454-59.273l21.922,58.549c1.739,4.628,6.853,6.986,11.419,5.269
	S483.639,112.293,481.9,107.667"/>
<path fill="#120878" d="M581.659,107.667l-31.604-85.282h-13.266l-32.564,85.965c-1.762,4.652,0.507,9.826,5.07,11.554
	c4.562,1.729,9.689-0.642,11.451-5.295l22.455-59.273l21.921,58.549c1.74,4.628,6.853,6.986,11.42,5.269
	C581.108,117.436,583.399,112.293,581.659,107.667"/>
<path fill="#120878" d="M269.591,20.592v8.834v9.656v22.091h-39.865v-22.09v-9.656v-8.834h-17.667v8.834v9.656v72.552
	c0,4.879,3.955,8.834,8.834,8.834c4.878,0,8.833-3.955,8.833-8.834V78.841h39.865v32.792c0,4.88,3.955,8.834,8.834,8.834
	c4.88,0,8.834-3.954,8.834-8.834v-72.55v-9.656v-8.834L269.591,20.592L269.591,20.592z"/>
<path fill="#120878" d="M665.152,21.108v9.911v8.579V79.4l-40.42-57.14l-0.163,0.176v-0.469H608.38
	c-0.488-0.041-0.979-0.075-1.479-0.075v0.075v18.49v71.176c0,4.88,3.956,8.834,8.834,8.834c4.879,0,8.834-3.954,8.834-8.834V54.664
	l41.806,59.329c1.529,2.633,4.349,4.422,7.611,4.422c4.879,0,8.834-3.955,8.834-8.834V39.598V31.02v-9.911L665.152,21.108
	L665.152,21.108z"/>
<path fill="#120878" d="M235.518,173.672l5.085,3.359c-2.86,3.633-7.311,5.904-12.625,5.904c-9.401,0-16.168-7.176-16.168-16.486
	c0-9.31,6.767-16.438,16.168-16.438c5.314,0,9.765,2.225,12.625,5.902l-5.085,3.36c-1.682-2.044-4.226-3.407-7.54-3.407
	c-6.585,0-9.992,5.313-9.992,10.582c0,5.313,3.407,10.627,9.992,10.627C231.293,177.077,233.837,175.715,235.518,173.672"/>
<path fill="#120878" d="M287.254,182.346l-6.539-11.444h-0.499h-4.859v11.444h-6.129v-31.79h10.988
	c7.132,0,11.854,4.358,11.854,10.399c0,3.998-2.134,7.086-5.587,8.674l7.813,12.717H287.254z M275.356,165.588h4.859
	c3.179,0,5.541-1.453,5.541-4.633c0-2.861-2.091-4.678-5.541-4.678h-4.859V165.588z"/>
<polygon fill="#120878" points="336.179,170.448 336.179,182.346 330.004,182.346 330.004,170.448 318.149,150.556 324.917,150.556 
	333.092,164.954 341.312,150.556 348.034,150.556 "/>
<path fill="#120878" d="M399.273,161.547c0,6.584-4.633,10.943-12.218,10.943h-4.45v9.854h-6.176v-31.789h10.626
	C394.64,150.556,399.273,154.961,399.273,161.547 M393.004,161.547c0-3.362-2.18-5.271-5.948-5.271h-4.45v10.491h4.45
	C390.825,166.769,393.004,164.861,393.004,161.547"/>
<polygon fill="#120878" points="448.65,156.278 441.021,156.278 441.021,182.346 434.845,182.346 434.845,156.278 427.217,156.278 
	427.217,150.556 448.65,150.556 "/>
<polygon fill="#120878" points="575.779,176.624 575.779,182.346 557.387,182.346 557.387,150.556 563.516,150.556 563.516,176.624 
	"/>
<path fill="#120878" d="M626.629,176.034H613.55l-2.135,6.313h-6.538l11.444-31.789h7.537l11.445,31.789h-6.541L626.629,176.034z
	 M624.768,170.54l-4.678-13.762l-4.679,13.762H624.768z"/>
<path fill="#120878" d="M684.89,173.172c0,5.633-3.953,9.174-11.311,9.174h-11.942v-31.79h10.762c7.268,0,11.22,3.452,11.22,8.538
	c0,2.953-1.229,5.086-3.497,6.447v0.094C683.21,167.042,684.89,169.629,684.89,173.172 M667.813,155.87v7.902h4.586
	c2.862,0,5.041-1.09,5.041-4.043c0-2.906-2.359-3.859-5.041-3.859H667.813z M678.622,172.764c0-2.953-2.271-4.088-5.041-4.088
	h-5.768v8.355h5.768C676.534,177.034,678.622,175.581,678.622,172.764"/>
<path fill="#120878" d="M489.345,156.641v-6.036c-6.802,1.242-11.713,6.454-12.779,13.308h-4.938v5.725h4.944
	c1.081,6.84,5.986,12.063,12.773,13.308v-6.036c-4.502-1.402-6.82-5.775-6.82-10.154
	C482.525,162.409,484.844,158.043,489.345,156.641"/>
<path fill="#120878" d="M513.501,163.915h-5.037c-1.075-6.901-6.051-12.137-12.927-13.33v6.018c4.597,1.354,6.969,5.764,6.969,10.15
	c0,4.427-2.372,8.84-6.969,10.195v6.018c6.861-1.198,11.831-6.442,12.921-13.33h5.043V163.915L513.501,163.915z"/>
</svg>
